<svg xmlns="http://www.w3.org/2000/svg" width="1536" height="1024" viewBox="0 0 1536 1024">
<g fill="#000" fill-rule="evenodd">
<path d="M 845.00 487.00 L 845.00 551.00 L 859.00 551.00 L 859.00 487.00 Z"/>
<path d="M 1017.00 487.00 L 1007.00 492.00 L 1000.00 499.00 L 997.00 504.00 L 997.00 506.00 L 995.00 510.00 L 995.00 513.00 L 994.00 514.00 L 994.00 524.00 L 995.00 525.00 L 995.00 530.00 L 998.00 536.00 L 998.00 538.00 L 1001.00 542.00 L 1008.00 548.00 L 1014.00 551.00 L 1020.00 552.00 L 1021.00 553.00 L 1029.00 553.00 L 1030.00 554.00 L 1033.00 554.00 L 1034.00 553.00 L 1041.00 553.00 L 1051.00 549.00 L 1061.00 540.00 L 1062.00 537.00 L 1057.00 537.00 L 1055.00 540.00 L 1048.00 545.00 L 1046.00 545.00 L 1042.00 547.00 L 1039.00 547.00 L 1038.00 548.00 L 1030.00 548.00 L 1029.00 547.00 L 1023.00 546.00 L 1018.00 543.00 L 1012.00 536.00 L 1010.00 531.00 L 1010.00 528.00 L 1009.00 527.00 L 1009.00 518.00 L 1010.00 517.00 L 1063.00 517.00 L 1063.00 509.00 L 1062.00 508.00 L 1062.00 505.00 L 1058.00 497.00 L 1053.00 492.00 L 1043.00 487.00 L 1039.00 487.00 L 1038.00 486.00 L 1022.00 486.00 L 1021.00 487.00 Z M 1010.00 506.00 L 1013.00 499.00 L 1018.00 494.00 L 1025.00 491.00 L 1035.00 491.00 L 1040.00 493.00 L 1045.00 497.00 L 1048.00 502.00 L 1049.00 510.00 L 1048.00 511.00 L 1014.00 511.00 L 1013.00 512.00 L 1011.00 512.00 L 1010.00 511.00 Z"/>
<path d="M 877.00 487.00 L 877.00 551.00 L 891.00 551.00 L 891.00 508.00 L 894.00 501.00 L 899.00 496.00 L 906.00 493.00 L 913.00 493.00 L 914.00 494.00 L 916.00 494.00 L 922.00 501.00 L 922.00 504.00 L 923.00 505.00 L 923.00 551.00 L 937.00 551.00 L 937.00 507.00 L 939.00 502.00 L 945.00 496.00 L 951.00 493.00 L 958.00 493.00 L 960.00 494.00 L 965.00 499.00 L 967.00 504.00 L 967.00 551.00 L 981.00 551.00 L 981.00 502.00 L 978.00 494.00 L 973.00 489.00 L 966.00 486.00 L 954.00 486.00 L 945.00 490.00 L 941.00 494.00 L 940.00 494.00 L 937.00 498.00 L 936.00 498.00 L 934.00 494.00 L 926.00 487.00 L 923.00 487.00 L 922.00 486.00 L 910.00 486.00 L 900.00 490.00 L 893.00 497.00 L 893.00 498.00 L 891.00 499.00 L 890.00 498.00 L 891.00 496.00 L 891.00 487.00 Z"/>
<path d="M 776.00 527.00 L 775.00 528.00 L 774.00 527.00 L 763.00 535.00 L 750.00 542.00 L 748.00 542.00 L 744.00 544.00 L 741.00 544.00 L 740.00 545.00 L 729.00 545.00 L 725.00 543.00 L 722.00 540.00 L 719.00 533.00 L 719.00 520.00 L 718.00 519.00 L 718.00 506.00 L 717.00 505.00 L 717.00 500.00 L 714.00 495.00 L 712.00 494.00 L 705.00 494.00 L 698.00 498.00 L 692.00 504.00 L 692.00 505.00 L 685.00 512.00 L 682.00 517.00 L 677.00 522.00 L 670.00 532.00 L 666.00 536.00 L 665.00 534.00 L 667.00 529.00 L 667.00 525.00 L 669.00 521.00 L 669.00 517.00 L 670.00 516.00 L 671.00 510.00 L 675.00 499.00 L 675.00 496.00 L 673.00 494.00 L 668.00 493.00 L 660.00 500.00 L 648.00 516.00 L 630.00 535.00 L 629.00 535.00 L 619.00 544.00 L 610.00 549.00 L 606.00 550.00 L 602.00 547.00 L 602.00 540.00 L 603.00 539.00 L 604.00 532.00 L 605.00 531.00 L 611.00 511.00 L 613.00 508.00 L 614.00 503.00 L 617.00 498.00 L 617.00 496.00 L 622.00 484.00 L 618.00 481.00 L 613.00 481.00 L 609.00 485.00 L 607.00 490.00 L 591.00 512.00 L 569.00 534.00 L 568.00 534.00 L 563.00 539.00 L 555.00 544.00 L 552.00 547.00 L 549.00 548.00 L 539.00 555.00 L 513.00 567.00 L 511.00 567.00 L 504.00 570.00 L 489.00 573.00 L 488.00 574.00 L 475.00 575.00 L 474.00 576.00 L 472.00 576.00 L 472.00 578.00 L 477.00 581.00 L 496.00 581.00 L 497.00 580.00 L 501.00 580.00 L 502.00 579.00 L 509.00 578.00 L 510.00 577.00 L 524.00 573.00 L 544.00 563.00 L 546.00 561.00 L 555.00 556.00 L 568.00 545.00 L 569.00 545.00 L 587.00 527.00 L 587.00 526.00 L 599.00 512.00 L 600.00 514.00 L 598.00 517.00 L 597.00 523.00 L 595.00 527.00 L 594.00 535.00 L 593.00 536.00 L 593.00 542.00 L 592.00 543.00 L 593.00 544.00 L 593.00 550.00 L 595.00 553.00 L 601.00 556.00 L 610.00 555.00 L 618.00 551.00 L 628.00 544.00 L 644.00 529.00 L 644.00 528.00 L 650.00 522.00 L 659.00 510.00 L 660.00 511.00 L 660.00 513.00 L 658.00 517.00 L 658.00 520.00 L 657.00 521.00 L 657.00 524.00 L 656.00 525.00 L 656.00 528.00 L 655.00 529.00 L 655.00 532.00 L 653.00 536.00 L 652.00 544.00 L 651.00 545.00 L 652.00 549.00 L 656.00 552.00 L 658.00 552.00 L 662.00 550.00 L 665.00 547.00 L 665.00 546.00 L 670.00 541.00 L 670.00 540.00 L 674.00 536.00 L 686.00 520.00 L 691.00 515.00 L 691.00 514.00 L 698.00 507.00 L 698.00 506.00 L 702.00 503.00 L 704.00 503.00 L 706.00 506.00 L 706.00 511.00 L 707.00 512.00 L 707.00 531.00 L 708.00 532.00 L 708.00 537.00 L 711.00 543.00 L 717.00 549.00 L 722.00 551.00 L 726.00 551.00 L 727.00 552.00 L 735.00 552.00 L 736.00 551.00 L 741.00 551.00 L 742.00 550.00 L 750.00 548.00 L 763.00 541.00 L 771.00 535.00 L 776.00 530.00 Z"/>
<path d="M 749.00 450.00 L 748.00 451.00 L 749.00 452.00 L 749.00 455.00 L 748.00 456.00 L 787.00 456.00 L 788.00 457.00 L 788.00 551.00 L 802.00 551.00 L 802.00 457.00 L 803.00 456.00 L 835.00 456.00 L 835.00 450.00 Z"/>
<path d="M 848.00 450.00 L 845.00 453.00 L 845.00 455.00 L 844.00 456.00 L 844.00 460.00 L 845.00 462.00 L 850.00 466.00 L 857.00 466.00 L 859.00 465.00 L 862.00 462.00 L 862.00 460.00 L 863.00 459.00 L 862.00 453.00 L 857.00 449.00 L 851.00 449.00 L 850.00 450.00 Z"/>
<path d="M 624.00 442.00 L 623.00 443.00 L 621.00 443.00 L 617.00 447.00 L 615.00 452.00 L 615.00 455.00 L 617.00 460.00 L 620.00 463.00 L 624.00 465.00 L 629.00 465.00 L 633.00 463.00 L 637.00 459.00 L 638.00 457.00 L 638.00 449.00 L 633.00 443.00 L 631.00 442.00 Z"/>
</g></svg>